G04 #@! TF.FileFunction,Soldermask,Bot*
%FSLAX46Y46*%
G04 Gerber Fmt 4.6, Leading zero omitted, Abs format (unit mm)*
G04 Created by KiCad (PCBNEW 4.0.1-stable) date 05/05/18 00:40:07*
%MOMM*%
G01*
G04 APERTURE LIST*
%ADD10C,0.050000*%
%ADD11C,1.924000*%
%ADD12O,3.448000X1.924000*%
%ADD13C,2.400000*%
%ADD14C,3.400000*%
%ADD15O,1.924000X2.200000*%
G04 APERTURE END LIST*
D10*
D11*
X128270000Y-56030000D03*
X125730000Y-56030000D03*
X128270000Y-58570000D03*
X125730000Y-58570000D03*
X128270000Y-61110000D03*
X125730000Y-61110000D03*
X128270000Y-63650000D03*
X125730000Y-63650000D03*
X128270000Y-66190000D03*
X125730000Y-66190000D03*
X128270000Y-68730000D03*
X125730000Y-68730000D03*
X128270000Y-71270000D03*
X125730000Y-71270000D03*
X128270000Y-73810000D03*
X125730000Y-73810000D03*
X128270000Y-76350000D03*
X125730000Y-76350000D03*
X128270000Y-78890000D03*
X125730000Y-78890000D03*
X128270000Y-81430000D03*
X125730000Y-81430000D03*
X128270000Y-83970000D03*
X125730000Y-83970000D03*
D12*
X90500000Y-56030000D03*
X90500000Y-58570000D03*
X90500000Y-61110000D03*
X90500000Y-63650000D03*
X90500000Y-66190000D03*
X90500000Y-68730000D03*
X90500000Y-71270000D03*
X90500000Y-73810000D03*
X90500000Y-76350000D03*
X90500000Y-78890000D03*
X90500000Y-81430000D03*
X90500000Y-83970000D03*
D13*
X99500000Y-73500000D03*
X107000000Y-73500000D03*
D11*
X97000000Y-63500000D03*
X99500000Y-63500000D03*
X101500000Y-63500000D03*
X104000000Y-63500000D03*
D14*
X93930000Y-60900000D03*
X107070000Y-60900000D03*
D11*
X113000000Y-63500000D03*
X115500000Y-63500000D03*
X117500000Y-63500000D03*
X120000000Y-63500000D03*
D14*
X109930000Y-60900000D03*
X123070000Y-60900000D03*
D15*
X121500000Y-69000000D03*
X119500000Y-69000000D03*
X117500000Y-69000000D03*
X115500000Y-69000000D03*
M02*
