M48
;DRILL file {KiCad 4.0.1-stable} date 05/05/18 00:40:09
;FORMAT={-:-/ absolute / metric / decimal}
FMAT,2
METRIC,TZ
T1C0.400
T2C0.762
T3C1.000
T4C1.016
T5C2.500
T6C3.000
T7C1.200
T8C1.500
%
G90
G05
M71
T1
X95.3Y-73.5
X99.5Y-57.5
X113.131Y-57.405
X115.5Y-83.5
X118.5Y-56.5
X119.5Y-52.
T2
X115.5Y-69.
X117.5Y-69.
X119.5Y-69.
X121.5Y-69.
T3
X97.Y-63.5
X99.5Y-63.5
X101.5Y-63.5
X104.Y-63.5
X113.Y-63.5
X115.5Y-63.5
X117.5Y-63.5
X120.Y-63.5
T4
X90.5Y-56.03
X90.5Y-58.57
X90.5Y-61.11
X90.5Y-63.65
X90.5Y-66.19
X90.5Y-68.73
X90.5Y-71.27
X90.5Y-73.81
X90.5Y-76.35
X90.5Y-78.89
X90.5Y-81.43
X90.5Y-83.97
X125.73Y-56.03
X125.73Y-58.57
X125.73Y-61.11
X125.73Y-63.65
X125.73Y-66.19
X125.73Y-68.73
X125.73Y-71.27
X125.73Y-73.81
X125.73Y-76.35
X125.73Y-78.89
X125.73Y-81.43
X125.73Y-83.97
X128.27Y-56.03
X128.27Y-58.57
X128.27Y-61.11
X128.27Y-63.65
X128.27Y-66.19
X128.27Y-68.73
X128.27Y-71.27
X128.27Y-73.81
X128.27Y-76.35
X128.27Y-78.89
X128.27Y-81.43
X128.27Y-83.97
T5
X93.93Y-60.9
X107.07Y-60.9
X109.93Y-60.9
X123.07Y-60.9
T6
X92.25Y-52.75
X92.25Y-87.25
X126.75Y-52.75
X126.75Y-87.25
T7
X99.5Y-73.5
T8
X107.Y-73.5
T0
M30
