G04 #@! TF.FileFunction,Legend,Bot*
%FSLAX46Y46*%
G04 Gerber Fmt 4.6, Leading zero omitted, Abs format (unit mm)*
G04 Created by KiCad (PCBNEW 4.0.1-stable) date 05/05/18 00:40:07*
%MOMM*%
G01*
G04 APERTURE LIST*
%ADD10C,0.050000*%
%ADD11C,0.066040*%
%ADD12C,0.152400*%
%ADD13C,0.150000*%
%ADD14C,0.127000*%
G04 APERTURE END LIST*
D10*
D11*
X128524000Y-55776000D02*
X128524000Y-56284000D01*
X128524000Y-56284000D02*
X128016000Y-56284000D01*
X128016000Y-55776000D02*
X128016000Y-56284000D01*
X128524000Y-55776000D02*
X128016000Y-55776000D01*
X125984000Y-55776000D02*
X125984000Y-56284000D01*
X125984000Y-56284000D02*
X125476000Y-56284000D01*
X125476000Y-55776000D02*
X125476000Y-56284000D01*
X125984000Y-55776000D02*
X125476000Y-55776000D01*
X125984000Y-58316000D02*
X125984000Y-58824000D01*
X125984000Y-58824000D02*
X125476000Y-58824000D01*
X125476000Y-58316000D02*
X125476000Y-58824000D01*
X125984000Y-58316000D02*
X125476000Y-58316000D01*
X128524000Y-58316000D02*
X128524000Y-58824000D01*
X128524000Y-58824000D02*
X128016000Y-58824000D01*
X128016000Y-58316000D02*
X128016000Y-58824000D01*
X128524000Y-58316000D02*
X128016000Y-58316000D01*
X125984000Y-60856000D02*
X125984000Y-61364000D01*
X125984000Y-61364000D02*
X125476000Y-61364000D01*
X125476000Y-60856000D02*
X125476000Y-61364000D01*
X125984000Y-60856000D02*
X125476000Y-60856000D01*
X128524000Y-60856000D02*
X128524000Y-61364000D01*
X128524000Y-61364000D02*
X128016000Y-61364000D01*
X128016000Y-60856000D02*
X128016000Y-61364000D01*
X128524000Y-60856000D02*
X128016000Y-60856000D01*
X125984000Y-63396000D02*
X125984000Y-63904000D01*
X125984000Y-63904000D02*
X125476000Y-63904000D01*
X125476000Y-63396000D02*
X125476000Y-63904000D01*
X125984000Y-63396000D02*
X125476000Y-63396000D01*
X125984000Y-65936000D02*
X125984000Y-66444000D01*
X125984000Y-66444000D02*
X125476000Y-66444000D01*
X125476000Y-65936000D02*
X125476000Y-66444000D01*
X125984000Y-65936000D02*
X125476000Y-65936000D01*
X125984000Y-68476000D02*
X125984000Y-68984000D01*
X125984000Y-68984000D02*
X125476000Y-68984000D01*
X125476000Y-68476000D02*
X125476000Y-68984000D01*
X125984000Y-68476000D02*
X125476000Y-68476000D01*
X128524000Y-63396000D02*
X128524000Y-63904000D01*
X128524000Y-63904000D02*
X128016000Y-63904000D01*
X128016000Y-63396000D02*
X128016000Y-63904000D01*
X128524000Y-63396000D02*
X128016000Y-63396000D01*
X128524000Y-65936000D02*
X128524000Y-66444000D01*
X128524000Y-66444000D02*
X128016000Y-66444000D01*
X128016000Y-65936000D02*
X128016000Y-66444000D01*
X128524000Y-65936000D02*
X128016000Y-65936000D01*
X128524000Y-68476000D02*
X128524000Y-68984000D01*
X128524000Y-68984000D02*
X128016000Y-68984000D01*
X128016000Y-68476000D02*
X128016000Y-68984000D01*
X128524000Y-68476000D02*
X128016000Y-68476000D01*
X125984000Y-71016000D02*
X125984000Y-71524000D01*
X125984000Y-71524000D02*
X125476000Y-71524000D01*
X125476000Y-71016000D02*
X125476000Y-71524000D01*
X125984000Y-71016000D02*
X125476000Y-71016000D01*
X128524000Y-71016000D02*
X128524000Y-71524000D01*
X128524000Y-71524000D02*
X128016000Y-71524000D01*
X128016000Y-71016000D02*
X128016000Y-71524000D01*
X128524000Y-71016000D02*
X128016000Y-71016000D01*
X125984000Y-73556000D02*
X125984000Y-74064000D01*
X125984000Y-74064000D02*
X125476000Y-74064000D01*
X125476000Y-73556000D02*
X125476000Y-74064000D01*
X125984000Y-73556000D02*
X125476000Y-73556000D01*
X128524000Y-73556000D02*
X128524000Y-74064000D01*
X128524000Y-74064000D02*
X128016000Y-74064000D01*
X128016000Y-73556000D02*
X128016000Y-74064000D01*
X128524000Y-73556000D02*
X128016000Y-73556000D01*
X125984000Y-76096000D02*
X125984000Y-76604000D01*
X125984000Y-76604000D02*
X125476000Y-76604000D01*
X125476000Y-76096000D02*
X125476000Y-76604000D01*
X125984000Y-76096000D02*
X125476000Y-76096000D01*
X128524000Y-76096000D02*
X128524000Y-76604000D01*
X128524000Y-76604000D02*
X128016000Y-76604000D01*
X128016000Y-76096000D02*
X128016000Y-76604000D01*
X128524000Y-76096000D02*
X128016000Y-76096000D01*
X125984000Y-78636000D02*
X125984000Y-79144000D01*
X125984000Y-79144000D02*
X125476000Y-79144000D01*
X125476000Y-78636000D02*
X125476000Y-79144000D01*
X125984000Y-78636000D02*
X125476000Y-78636000D01*
X128524000Y-78636000D02*
X128524000Y-79144000D01*
X128524000Y-79144000D02*
X128016000Y-79144000D01*
X128016000Y-78636000D02*
X128016000Y-79144000D01*
X128524000Y-78636000D02*
X128016000Y-78636000D01*
X125984000Y-81176000D02*
X125984000Y-81684000D01*
X125984000Y-81684000D02*
X125476000Y-81684000D01*
X125476000Y-81176000D02*
X125476000Y-81684000D01*
X125984000Y-81176000D02*
X125476000Y-81176000D01*
X128524000Y-81176000D02*
X128524000Y-81684000D01*
X128524000Y-81684000D02*
X128016000Y-81684000D01*
X128016000Y-81176000D02*
X128016000Y-81684000D01*
X128524000Y-81176000D02*
X128016000Y-81176000D01*
X125984000Y-83716000D02*
X125984000Y-84224000D01*
X125984000Y-84224000D02*
X125476000Y-84224000D01*
X125476000Y-83716000D02*
X125476000Y-84224000D01*
X125984000Y-83716000D02*
X125476000Y-83716000D01*
X128524000Y-83716000D02*
X128524000Y-84224000D01*
X128524000Y-84224000D02*
X128016000Y-84224000D01*
X128016000Y-83716000D02*
X128016000Y-84224000D01*
X128524000Y-83716000D02*
X128016000Y-83716000D01*
D12*
X128905000Y-54760000D02*
X129540000Y-55395000D01*
X129540000Y-55395000D02*
X129540000Y-56665000D01*
X129540000Y-56665000D02*
X128905000Y-57300000D01*
X128905000Y-57300000D02*
X129540000Y-57935000D01*
X129540000Y-57935000D02*
X129540000Y-59205000D01*
X129540000Y-59205000D02*
X128905000Y-59840000D01*
X128905000Y-59840000D02*
X129540000Y-60475000D01*
X129540000Y-60475000D02*
X129540000Y-61745000D01*
X129540000Y-61745000D02*
X128905000Y-62380000D01*
X128905000Y-62380000D02*
X129540000Y-63015000D01*
X129540000Y-63015000D02*
X129540000Y-64285000D01*
X129540000Y-64285000D02*
X128905000Y-64920000D01*
X128905000Y-64920000D02*
X129540000Y-65555000D01*
X129540000Y-65555000D02*
X129540000Y-66825000D01*
X129540000Y-66825000D02*
X128905000Y-67460000D01*
X128905000Y-67460000D02*
X129540000Y-68095000D01*
X129540000Y-68095000D02*
X129540000Y-69365000D01*
X129540000Y-69365000D02*
X128905000Y-70000000D01*
X128905000Y-54760000D02*
X125095000Y-54760000D01*
X125095000Y-54760000D02*
X124460000Y-55395000D01*
X124460000Y-55395000D02*
X124460000Y-56665000D01*
X124460000Y-56665000D02*
X125095000Y-57300000D01*
X125095000Y-57300000D02*
X124460000Y-57935000D01*
X124460000Y-57935000D02*
X124460000Y-59205000D01*
X124460000Y-59205000D02*
X125095000Y-59840000D01*
X125095000Y-59840000D02*
X124460000Y-60475000D01*
X124460000Y-60475000D02*
X124460000Y-61745000D01*
X124460000Y-61745000D02*
X125095000Y-62380000D01*
X125095000Y-62380000D02*
X124460000Y-63015000D01*
X124460000Y-63015000D02*
X124460000Y-64285000D01*
X124460000Y-64285000D02*
X125095000Y-64920000D01*
X125095000Y-64920000D02*
X124460000Y-65555000D01*
X124460000Y-65555000D02*
X124460000Y-66825000D01*
X124460000Y-66825000D02*
X125095000Y-67460000D01*
X125095000Y-67460000D02*
X124460000Y-68095000D01*
X124460000Y-68095000D02*
X124460000Y-69365000D01*
X124460000Y-69365000D02*
X125095000Y-70000000D01*
X125095000Y-70000000D02*
X124460000Y-70635000D01*
X124460000Y-70635000D02*
X124460000Y-71905000D01*
X124460000Y-71905000D02*
X125095000Y-72540000D01*
X125095000Y-72540000D02*
X124460000Y-73175000D01*
X124460000Y-73175000D02*
X124460000Y-74445000D01*
X124460000Y-74445000D02*
X125095000Y-75080000D01*
X125095000Y-75080000D02*
X124460000Y-75715000D01*
X124460000Y-75715000D02*
X124460000Y-76985000D01*
X124460000Y-76985000D02*
X125095000Y-77620000D01*
X125095000Y-77620000D02*
X124460000Y-78255000D01*
X124460000Y-78255000D02*
X124460000Y-79525000D01*
X124460000Y-79525000D02*
X125095000Y-80160000D01*
X125095000Y-80160000D02*
X124460000Y-80795000D01*
X124460000Y-80795000D02*
X124460000Y-82065000D01*
X124460000Y-82065000D02*
X125095000Y-82700000D01*
X128905000Y-82700000D02*
X129540000Y-82065000D01*
X129540000Y-82065000D02*
X129540000Y-80795000D01*
X128905000Y-80160000D02*
X129540000Y-80795000D01*
X128905000Y-80160000D02*
X129540000Y-79525000D01*
X129540000Y-79525000D02*
X129540000Y-78255000D01*
X128905000Y-77620000D02*
X129540000Y-78255000D01*
X128905000Y-77620000D02*
X129540000Y-76985000D01*
X129540000Y-76985000D02*
X129540000Y-75715000D01*
X128905000Y-75080000D02*
X129540000Y-75715000D01*
X128905000Y-75080000D02*
X129540000Y-74445000D01*
X129540000Y-74445000D02*
X129540000Y-73175000D01*
X128905000Y-72540000D02*
X129540000Y-73175000D01*
X128905000Y-72540000D02*
X129540000Y-71905000D01*
X129540000Y-71905000D02*
X129540000Y-70635000D01*
X128905000Y-70000000D02*
X129540000Y-70635000D01*
X125095000Y-57300000D02*
X128905000Y-57300000D01*
X125095000Y-59840000D02*
X128905000Y-59840000D01*
X125095000Y-62380000D02*
X128905000Y-62380000D01*
X125095000Y-64920000D02*
X128905000Y-64920000D01*
X125095000Y-67460000D02*
X128905000Y-67460000D01*
X125095000Y-70000000D02*
X128905000Y-70000000D01*
X125095000Y-72540000D02*
X128905000Y-72540000D01*
X125095000Y-75080000D02*
X128905000Y-75080000D01*
X125095000Y-77620000D02*
X128905000Y-77620000D01*
X125095000Y-80160000D02*
X128905000Y-80160000D01*
X125095000Y-82700000D02*
X128905000Y-82700000D01*
X125095000Y-82700000D02*
X124460000Y-83335000D01*
X124460000Y-83335000D02*
X124460000Y-84605000D01*
X124460000Y-84605000D02*
X125095000Y-85240000D01*
X128905000Y-85240000D02*
X129540000Y-84605000D01*
X129540000Y-84605000D02*
X129540000Y-83335000D01*
X128905000Y-82700000D02*
X129540000Y-83335000D01*
X125095000Y-85240000D02*
X128905000Y-85240000D01*
D11*
X90754000Y-81176000D02*
X90754000Y-81684000D01*
X90754000Y-81684000D02*
X90246000Y-81684000D01*
X90246000Y-81176000D02*
X90246000Y-81684000D01*
X90754000Y-81176000D02*
X90246000Y-81176000D01*
X90754000Y-78636000D02*
X90754000Y-79144000D01*
X90754000Y-79144000D02*
X90246000Y-79144000D01*
X90246000Y-78636000D02*
X90246000Y-79144000D01*
X90754000Y-78636000D02*
X90246000Y-78636000D01*
X90754000Y-76096000D02*
X90754000Y-76604000D01*
X90754000Y-76604000D02*
X90246000Y-76604000D01*
X90246000Y-76096000D02*
X90246000Y-76604000D01*
X90754000Y-76096000D02*
X90246000Y-76096000D01*
X90754000Y-73556000D02*
X90754000Y-74064000D01*
X90754000Y-74064000D02*
X90246000Y-74064000D01*
X90246000Y-73556000D02*
X90246000Y-74064000D01*
X90754000Y-73556000D02*
X90246000Y-73556000D01*
X90754000Y-71016000D02*
X90754000Y-71524000D01*
X90754000Y-71524000D02*
X90246000Y-71524000D01*
X90246000Y-71016000D02*
X90246000Y-71524000D01*
X90754000Y-71016000D02*
X90246000Y-71016000D01*
X90754000Y-68476000D02*
X90754000Y-68984000D01*
X90754000Y-68984000D02*
X90246000Y-68984000D01*
X90246000Y-68476000D02*
X90246000Y-68984000D01*
X90754000Y-68476000D02*
X90246000Y-68476000D01*
X90754000Y-65936000D02*
X90754000Y-66444000D01*
X90754000Y-66444000D02*
X90246000Y-66444000D01*
X90246000Y-65936000D02*
X90246000Y-66444000D01*
X90754000Y-65936000D02*
X90246000Y-65936000D01*
X90754000Y-63396000D02*
X90754000Y-63904000D01*
X90754000Y-63904000D02*
X90246000Y-63904000D01*
X90246000Y-63396000D02*
X90246000Y-63904000D01*
X90754000Y-63396000D02*
X90246000Y-63396000D01*
X90754000Y-60856000D02*
X90754000Y-61364000D01*
X90754000Y-61364000D02*
X90246000Y-61364000D01*
X90246000Y-60856000D02*
X90246000Y-61364000D01*
X90754000Y-60856000D02*
X90246000Y-60856000D01*
X90754000Y-58316000D02*
X90754000Y-58824000D01*
X90754000Y-58824000D02*
X90246000Y-58824000D01*
X90246000Y-58316000D02*
X90246000Y-58824000D01*
X90754000Y-58316000D02*
X90246000Y-58316000D01*
X90754000Y-55776000D02*
X90754000Y-56284000D01*
X90754000Y-56284000D02*
X90246000Y-56284000D01*
X90246000Y-55776000D02*
X90246000Y-56284000D01*
X90754000Y-55776000D02*
X90246000Y-55776000D01*
X90754000Y-83716000D02*
X90754000Y-84224000D01*
X90754000Y-84224000D02*
X90246000Y-84224000D01*
X90246000Y-83716000D02*
X90246000Y-84224000D01*
X90754000Y-83716000D02*
X90246000Y-83716000D01*
D12*
X89230000Y-78255000D02*
X89230000Y-79525000D01*
X89230000Y-79525000D02*
X89865000Y-80160000D01*
X89865000Y-80160000D02*
X91135000Y-80160000D01*
X91135000Y-80160000D02*
X91770000Y-79525000D01*
X89865000Y-80160000D02*
X89230000Y-80795000D01*
X89230000Y-80795000D02*
X89230000Y-82065000D01*
X89230000Y-82065000D02*
X89865000Y-82700000D01*
X89865000Y-82700000D02*
X91135000Y-82700000D01*
X91135000Y-82700000D02*
X91770000Y-82065000D01*
X91770000Y-82065000D02*
X91770000Y-80795000D01*
X91770000Y-80795000D02*
X91135000Y-80160000D01*
X89865000Y-75080000D02*
X89230000Y-75715000D01*
X89230000Y-75715000D02*
X89230000Y-76985000D01*
X89230000Y-76985000D02*
X89865000Y-77620000D01*
X89865000Y-77620000D02*
X91135000Y-77620000D01*
X91135000Y-77620000D02*
X91770000Y-76985000D01*
X91770000Y-76985000D02*
X91770000Y-75715000D01*
X91770000Y-75715000D02*
X91135000Y-75080000D01*
X89230000Y-78255000D02*
X89865000Y-77620000D01*
X91135000Y-77620000D02*
X91770000Y-78255000D01*
X91770000Y-79525000D02*
X91770000Y-78255000D01*
X89230000Y-70635000D02*
X89230000Y-71905000D01*
X89230000Y-71905000D02*
X89865000Y-72540000D01*
X89865000Y-72540000D02*
X91135000Y-72540000D01*
X91135000Y-72540000D02*
X91770000Y-71905000D01*
X89865000Y-72540000D02*
X89230000Y-73175000D01*
X89230000Y-73175000D02*
X89230000Y-74445000D01*
X89230000Y-74445000D02*
X89865000Y-75080000D01*
X89865000Y-75080000D02*
X91135000Y-75080000D01*
X91135000Y-75080000D02*
X91770000Y-74445000D01*
X91770000Y-74445000D02*
X91770000Y-73175000D01*
X91770000Y-73175000D02*
X91135000Y-72540000D01*
X89865000Y-67460000D02*
X89230000Y-68095000D01*
X89230000Y-68095000D02*
X89230000Y-69365000D01*
X89230000Y-69365000D02*
X89865000Y-70000000D01*
X89865000Y-70000000D02*
X91135000Y-70000000D01*
X91135000Y-70000000D02*
X91770000Y-69365000D01*
X91770000Y-69365000D02*
X91770000Y-68095000D01*
X91770000Y-68095000D02*
X91135000Y-67460000D01*
X89230000Y-70635000D02*
X89865000Y-70000000D01*
X91135000Y-70000000D02*
X91770000Y-70635000D01*
X91770000Y-71905000D02*
X91770000Y-70635000D01*
X89230000Y-63015000D02*
X89230000Y-64285000D01*
X89230000Y-64285000D02*
X89865000Y-64920000D01*
X89865000Y-64920000D02*
X91135000Y-64920000D01*
X91135000Y-64920000D02*
X91770000Y-64285000D01*
X89865000Y-64920000D02*
X89230000Y-65555000D01*
X89230000Y-65555000D02*
X89230000Y-66825000D01*
X89230000Y-66825000D02*
X89865000Y-67460000D01*
X89865000Y-67460000D02*
X91135000Y-67460000D01*
X91135000Y-67460000D02*
X91770000Y-66825000D01*
X91770000Y-66825000D02*
X91770000Y-65555000D01*
X91770000Y-65555000D02*
X91135000Y-64920000D01*
X89865000Y-59840000D02*
X89230000Y-60475000D01*
X89230000Y-60475000D02*
X89230000Y-61745000D01*
X89230000Y-61745000D02*
X89865000Y-62380000D01*
X89865000Y-62380000D02*
X91135000Y-62380000D01*
X91135000Y-62380000D02*
X91770000Y-61745000D01*
X91770000Y-61745000D02*
X91770000Y-60475000D01*
X91770000Y-60475000D02*
X91135000Y-59840000D01*
X89230000Y-63015000D02*
X89865000Y-62380000D01*
X91135000Y-62380000D02*
X91770000Y-63015000D01*
X91770000Y-64285000D02*
X91770000Y-63015000D01*
X89230000Y-55395000D02*
X89230000Y-56665000D01*
X89230000Y-56665000D02*
X89865000Y-57300000D01*
X89865000Y-57300000D02*
X91135000Y-57300000D01*
X91135000Y-57300000D02*
X91770000Y-56665000D01*
X89865000Y-57300000D02*
X89230000Y-57935000D01*
X89230000Y-57935000D02*
X89230000Y-59205000D01*
X89230000Y-59205000D02*
X89865000Y-59840000D01*
X89865000Y-59840000D02*
X91135000Y-59840000D01*
X91135000Y-59840000D02*
X91770000Y-59205000D01*
X91770000Y-59205000D02*
X91770000Y-57935000D01*
X91770000Y-57935000D02*
X91135000Y-57300000D01*
X89865000Y-54760000D02*
X91135000Y-54760000D01*
X89230000Y-55395000D02*
X89865000Y-54760000D01*
X91135000Y-54760000D02*
X91770000Y-55395000D01*
X91770000Y-56665000D02*
X91770000Y-55395000D01*
X89865000Y-82700000D02*
X89230000Y-83335000D01*
X89230000Y-83335000D02*
X89230000Y-84605000D01*
X89230000Y-84605000D02*
X89865000Y-85240000D01*
X89865000Y-85240000D02*
X91135000Y-85240000D01*
X91135000Y-85240000D02*
X91770000Y-84605000D01*
X91770000Y-84605000D02*
X91770000Y-83335000D01*
X91770000Y-83335000D02*
X91135000Y-82700000D01*
D13*
X92000000Y-64500000D02*
X109000000Y-64500000D01*
X109000000Y-64500000D02*
X109000000Y-50000000D01*
X109000000Y-50000000D02*
X92000000Y-50000000D01*
X92000000Y-50000000D02*
X92000000Y-64500000D01*
X108000000Y-64500000D02*
X125000000Y-64500000D01*
X125000000Y-64500000D02*
X125000000Y-50000000D01*
X125000000Y-50000000D02*
X108000000Y-50000000D01*
X108000000Y-50000000D02*
X108000000Y-64500000D01*
D14*
X124074524Y-82062619D02*
X122804524Y-82062619D01*
X122804524Y-82546428D01*
X122865000Y-82667381D01*
X122925476Y-82727857D01*
X123046429Y-82788333D01*
X123227857Y-82788333D01*
X123348810Y-82727857D01*
X123409286Y-82667381D01*
X123469762Y-82546428D01*
X123469762Y-82062619D01*
X123227857Y-83876905D02*
X124074524Y-83876905D01*
X122744048Y-83574524D02*
X123651190Y-83272143D01*
X123651190Y-84058333D01*
X93574524Y-82062619D02*
X92304524Y-82062619D01*
X92304524Y-82546428D01*
X92365000Y-82667381D01*
X92425476Y-82727857D01*
X92546429Y-82788333D01*
X92727857Y-82788333D01*
X92848810Y-82727857D01*
X92909286Y-82667381D01*
X92969762Y-82546428D01*
X92969762Y-82062619D01*
X92425476Y-83272143D02*
X92365000Y-83332619D01*
X92304524Y-83453571D01*
X92304524Y-83755952D01*
X92365000Y-83876905D01*
X92425476Y-83937381D01*
X92546429Y-83997857D01*
X92667381Y-83997857D01*
X92848810Y-83937381D01*
X93574524Y-83211667D01*
X93574524Y-83997857D01*
D13*
X97738095Y-65952381D02*
X97738095Y-64952381D01*
X97357142Y-64952381D01*
X97261904Y-65000000D01*
X97214285Y-65047619D01*
X97166666Y-65142857D01*
X97166666Y-65285714D01*
X97214285Y-65380952D01*
X97261904Y-65428571D01*
X97357142Y-65476190D01*
X97738095Y-65476190D01*
X96214285Y-65952381D02*
X96785714Y-65952381D01*
X96500000Y-65952381D02*
X96500000Y-64952381D01*
X96595238Y-65095238D01*
X96690476Y-65190476D01*
X96785714Y-65238095D01*
X113738095Y-65952381D02*
X113738095Y-64952381D01*
X113357142Y-64952381D01*
X113261904Y-65000000D01*
X113214285Y-65047619D01*
X113166666Y-65142857D01*
X113166666Y-65285714D01*
X113214285Y-65380952D01*
X113261904Y-65428571D01*
X113357142Y-65476190D01*
X113738095Y-65476190D01*
X112833333Y-64952381D02*
X112214285Y-64952381D01*
X112547619Y-65333333D01*
X112404761Y-65333333D01*
X112309523Y-65380952D01*
X112261904Y-65428571D01*
X112214285Y-65523810D01*
X112214285Y-65761905D01*
X112261904Y-65857143D01*
X112309523Y-65904762D01*
X112404761Y-65952381D01*
X112690476Y-65952381D01*
X112785714Y-65904762D01*
X112833333Y-65857143D01*
M02*
